<svg xmlns="http://www.w3.org/2000/svg" xmlns:xlink="http://www.w3.org/1999/xlink" width="533" height="533" version="1.1" viewBox="-2 -2 533 533"><defs><ellipse id="path-1" cx="264.511" cy="264.5" rx="264.511" ry="264.5"/></defs><g id="record" fill="none" fill-rule="evenodd" stroke="none" stroke-width="1"><g id="record-bg"><mask id="mask-2" fill="#fff"><use xlink:href="#path-1"/></mask><use id="outer-circle" fill="#503750" fill-opacity=".25" stroke="#503750" stroke-width="2.7" xlink:href="#path-1"/><g id="diagonal-hash" opacity=".333" style="mix-blend-mode:darken" fill="#503750" mask="url(#mask-2)"><g transform="translate(-8.097264, -4.498299)"><polygon id="Fill-1" points="337.369 542.495 341.186 542.495 540.772 342.917 540.772 339.101"/><polygon id="Fill-2" points="536.955 541.65 540.772 541.65 540.772 537.832"/><polygon id="Fill-3" points="518.061 542.495 521.878 542.495 540.771 523.602 540.771 519.786"/><polygon id="Fill-4" points="497.368 542.495 501.185 542.495 540.772 502.91 540.772 499.094"/><polygon id="Fill-5" points="476.675 542.495 480.492 542.495 540.772 482.218 540.772 478.401"/><polygon id="Fill-6" points="456.278 542.495 460.095 542.495 540.772 461.821 540.772 458.005"/><polygon id="Fill-7" points="436.262 542.495 440.078 542.495 540.772 441.805 540.772 437.99"/><polygon id="Fill-8" points="416.539 542.495 420.356 542.495 540.771 422.084 540.771 418.268"/><polygon id="Fill-9" points="396.816 542.495 400.634 542.495 540.772 402.362 540.772 398.546"/><polygon id="Fill-10" points="377.853 542.495 381.671 542.495 540.772 383.4 540.772 379.583"/><polygon id="Fill-11" points="357.54 542.495 361.357 542.495 540.772 363.087 540.772 359.271"/><polygon id="Fill-12" points="200.615 541.65 204.432 541.65 540.772 205.323 540.772 201.507"/><polygon id="Fill-13" points="319.525 541.65 323.342 541.65 540.771 324.228 540.771 320.412"/><polygon id="Fill-14" points="299.508 541.65 303.325 541.65 540.771 304.211 540.771 300.396"/><polygon id="Fill-15" points="279.786 541.65 283.602 541.65 540.772 284.491 540.772 280.674"/><polygon id="Fill-16" points="260.063 541.65 263.88 541.65 540.772 264.768 540.772 260.951"/><polygon id="Fill-17" points="241.1 541.65 244.917 541.65 540.772 245.806 540.772 241.989"/><polygon id="Fill-18" points="220.786 541.65 224.603 541.65 540.771 225.494 540.771 221.677"/><polygon id="Fill-19" points="139.83 541.65 143.647 541.65 540.771 144.541 540.771 140.724"/><polygon id="Fill-20" points="180.314 541.65 184.131 541.65 540.772 185.024 540.772 181.207"/><polygon id="Fill-21" points="160.002 541.65 163.818 541.65 540.771 164.711 540.771 160.896"/><polygon id="Fill-22" points="3.077 541.65 6.893 541.65 540.772 7.792 540.772 3.976"/><polygon id="Fill-23" points="121.986 541.65 125.803 541.65 540.772 126.697 540.772 122.88"/><polygon id="Fill-24" points="101.969 541.65 105.786 541.65 540.771 106.681 540.771 102.865"/><polygon id="Fill-25" points="82.246 541.65 86.063 541.65 540.772 86.96 540.772 83.143"/><polygon id="Fill-26" points="62.523 541.65 66.34 541.65 540.772 67.238 540.772 63.421"/><polygon id="Fill-27" points="43.56 541.65 47.377 541.65 540.772 48.275 540.772 44.459"/><polygon id="Fill-28" points="23.248 541.65 27.065 541.65 540.772 27.963 540.772 24.146"/><polygon id="Fill-29" points="323.928 1.799 .899 324.815 .899 328.631 327.744 1.799"/><polygon id="Fill-30" points="523.514 1.799 .9 524.392 .9 528.209 527.33 1.799"/><polygon id="Fill-31" points="504.62 1.799 .9 505.499 .9 509.316 508.437 1.799"/><polygon id="Fill-32" points="483.927 1.799 .9 484.807 .9 488.624 487.744 1.799"/><polygon id="Fill-33" points="463.234 1.799 .9 464.115 .9 467.932 467.051 1.799"/><polygon id="Fill-34" points="442.837 1.799 .899 443.719 .899 447.536 446.654 1.799"/><polygon id="Fill-35" points="422.821 1.799 .9 423.703 .9 427.519 426.637 1.799"/><polygon id="Fill-36" points="403.098 1.799 .9 403.981 .9 407.798 406.915 1.799"/><polygon id="Fill-37" points="383.375 1.799 .9 384.26 .9 388.076 387.192 1.799"/><polygon id="Fill-38" points="364.412 1.799 .9 365.297 .9 369.114 368.229 1.799"/><polygon id="Fill-39" points="344.099 1.799 .9 344.984 .9 348.802 347.916 1.799"/><polygon id="Fill-40" points="187.174 1.799 .899 188.067 .899 191.883 190.991 1.799"/><polygon id="Fill-41" points="306.083 1.799 .899 306.971 .899 310.788 309.9 1.799"/><polygon id="Fill-42" points="286.067 1.799 .9 286.955 .9 290.771 289.883 1.799"/><polygon id="Fill-43" points="266.344 1.799 .9 267.233 .9 271.05 270.161 1.799"/><polygon id="Fill-44" points="246.621 1.799 .9 247.512 .9 251.328 250.438 1.799"/><polygon id="Fill-45" points="227.658 1.799 .9 228.549 .9 232.366 231.475 1.799"/><polygon id="Fill-46" points="207.345 1.799 .9 208.236 .9 212.053 211.162 1.799"/><polygon id="Fill-47" points="125.489 .9 0 126.384 0 130.2 129.306 .9"/><polygon id="Fill-48" points="165.974 .9 0 166.866 0 170.682 169.79 .9"/><polygon id="Fill-49" points="145.661 .9 0 146.555 0 150.371 149.477 .9"/><polygon id="Fill-50" points="107.645 0 0 107.641 0 111.458 111.462 0"/><polygon id="Fill-51" points="87.629 0 0 87.625 0 91.441 91.445 0"/><polygon id="Fill-52" points="67.905 0 0 67.903 0 71.719 71.723 0"/><polygon id="Fill-53" points="48.183 0 0 48.181 0 51.997 51.999 0"/><polygon id="Fill-54" points="29.22 0 0 29.218 0 33.035 33.036 0"/><polygon id="Fill-55" points="8.907 3.598 0 12.505 0 16.322 12.724 3.598"/></g></g></g><ellipse id="middle-circle" cx="264.852" cy="264.841" fill="#FFCDD2" stroke="#503750" stroke-width="2.7" rx="97.509" ry="97.505"/><ellipse id="inner-circle" cx="264.642" cy="264.631" fill="#1E3264" fill-opacity=".25" stroke="#503750" stroke-width="2.7" rx="8.229" ry="8.228"/><g id="record-text" fill="#F037A5" transform="translate(246.425532, 217.219388)"><path id="404" d="M0.479174094,96.0638068 L5.33197409,96.0638068 L5.33197409,98.2670068 L7.30477409,98.2670068 L7.30477409,96.0638068 L8.98957409,96.0638068 L8.98957409,94.3214068 L7.30477409,94.3214068 L7.30477409,88.0574068 L4.78477409,88.0574068 L0.479174094,93.9326068 L0.479174094,96.0638068 Z M5.33197409,94.3214068 L2.25037409,94.3214068 L5.33197409,90.0878068 L5.33197409,94.3214068 Z M12.2295742,93.1694068 C12.2295742,94.4942068 12.4311742,95.7614068 13.1223742,96.7982068 C13.7991742,97.8062068 14.8647742,98.4830068 16.4055742,98.4830068 C17.9607742,98.4830068 19.0407742,97.8062068 19.7031742,96.7982068 C20.3799742,95.7614068 20.6103742,94.4942068 20.6103742,93.1694068 C20.6103742,91.8446068 20.3799742,90.5630068 19.7031742,89.5262068 C19.0407742,88.5182068 17.9607742,87.8414068 16.4055742,87.8414068 C14.8647742,87.8414068 13.7991742,88.5182068 13.1223742,89.5262068 C12.4311742,90.5630068 12.2295742,91.8446068 12.2295742,93.1694068 Z M14.2167742,93.1694068 C14.2167742,91.9742068 14.4039742,91.0238068 14.8503742,90.4046068 C15.1959742,89.9294068 15.6711742,89.6126068 16.4055742,89.6126068 C17.1543742,89.6126068 17.6295742,89.9294068 17.9751742,90.4046068 C18.4215742,91.0238068 18.6231742,91.9742068 18.6231742,93.1694068 C18.6231742,94.3646068 18.4215742,95.3150068 17.9751742,95.9342068 C17.6295742,96.4094068 17.1543742,96.7262068 16.4055742,96.7262068 C15.6711742,96.7262068 15.1959742,96.4094068 14.8503742,95.9342068 C14.4039742,95.3150068 14.2167742,94.3646068 14.2167742,93.1694068 Z M23.8647743,96.0638068 L28.7175743,96.0638068 L28.7175743,98.2670068 L30.6903743,98.2670068 L30.6903743,96.0638068 L32.3751743,96.0638068 L32.3751743,94.3214068 L30.6903743,94.3214068 L30.6903743,88.0574068 L28.1703743,88.0574068 L23.8647743,93.9326068 L23.8647743,96.0638068 Z M28.7175743,94.3214068 L25.6359743,94.3214068 L28.7175743,90.0878068 L28.7175743,94.3214068 Z" transform="translate(16.427174, 93.162207) scale(1, -1) translate(-16.427174, -93.162207)"/><path id="404" d="M0.479174094,8.7968 L5.33197409,8.7968 L5.33197409,11 L7.30477409,11 L7.30477409,8.7968 L8.98957409,8.7968 L8.98957409,7.0544 L7.30477409,7.0544 L7.30477409,0.7904 L4.78477409,0.7904 L0.479174094,6.6656 L0.479174094,8.7968 Z M5.33197409,7.0544 L2.25037409,7.0544 L5.33197409,2.8208 L5.33197409,7.0544 Z M12.2295742,5.9024 C12.2295742,7.2272 12.4311742,8.4944 13.1223742,9.5312 C13.7991742,10.5392 14.8647742,11.216 16.4055742,11.216 C17.9607742,11.216 19.0407742,10.5392 19.7031742,9.5312 C20.3799742,8.4944 20.6103742,7.2272 20.6103742,5.9024 C20.6103742,4.5776 20.3799742,3.296 19.7031742,2.2592 C19.0407742,1.2512 17.9607742,0.5744 16.4055742,0.5744 C14.8647742,0.5744 13.7991742,1.2512 13.1223742,2.2592 C12.4311742,3.296 12.2295742,4.5776 12.2295742,5.9024 Z M14.2167742,5.9024 C14.2167742,4.7072 14.4039742,3.7568 14.8503742,3.1376 C15.1959742,2.6624 15.6711742,2.3456 16.4055742,2.3456 C17.1543742,2.3456 17.6295742,2.6624 17.9751742,3.1376 C18.4215742,3.7568 18.6231742,4.7072 18.6231742,5.9024 C18.6231742,7.0976 18.4215742,8.048 17.9751742,8.6672 C17.6295742,9.1424 17.1543742,9.4592 16.4055742,9.4592 C15.6711742,9.4592 15.1959742,9.1424 14.8503742,8.6672 C14.4039742,8.048 14.2167742,7.0976 14.2167742,5.9024 Z M23.8647743,8.7968 L28.7175743,8.7968 L28.7175743,11 L30.6903743,11 L30.6903743,8.7968 L32.3751743,8.7968 L32.3751743,7.0544 L30.6903743,7.0544 L30.6903743,0.7904 L28.1703743,0.7904 L23.8647743,6.6656 L23.8647743,8.7968 Z M28.7175743,7.0544 L25.6359743,7.0544 L28.7175743,2.8208 L28.7175743,7.0544 Z"/></g></g></svg>